<?xml version="1.0" standalone="no"?>
<!DOCTYPE svg PUBLIC "-//W3C//DTD SVG 20010904//EN"
 "http://www.w3.org/TR/2001/REC-SVG-20010904/DTD/svg10.dtd">
<svg version="1.0" xmlns="http://www.w3.org/2000/svg"
 width="129.000000pt" height="129.000000pt" viewBox="0 0 129.000000 129.000000"
 preserveAspectRatio="xMidYMid meet">
<metadata>
Created by potrace 1.11, written by Peter Selinger 2001-2013
</metadata>
<g transform="translate(0.000000,129.000000) scale(0.100000,-0.100000)"
fill="#000000" stroke="none">
<path d="M595 1283 c-39 -4 -134 -23 -162 -34 -20 -7 -22 -11 -11 -34 13 -29
11 -28 60 -15 20 6 62 14 94 18 46 6 58 11 60 26 4 30 -8 41 -41 39z"/>
<path d="M650 1256 c0 -22 6 -26 48 -31 26 -4 70 -13 97 -21 45 -12 51 -12 63
3 16 23 10 38 -16 37 -12 0 -19 3 -17 7 6 8 -54 21 -66 13 -5 -3 -9 0 -9 5 0
6 -21 11 -50 11 -46 0 -50 -2 -50 -24z"/>
<path d="M340 1205 c-25 -13 -64 -40 -88 -60 -41 -36 -42 -38 -26 -56 9 -11
20 -19 23 -19 4 0 29 17 57 38 27 20 63 44 79 52 17 8 31 15 33 16 5 3 -21 54
-27 54 -3 -1 -26 -12 -51 -25z"/>
<path d="M883 1212 c-3 -9 -8 -20 -10 -24 -4 -8 97 -64 109 -60 4 1 7 -2 6 -7
-2 -4 8 -17 21 -28 22 -18 26 -19 43 -4 10 8 18 19 18 22 0 13 -122 99 -131
93 -5 -3 -9 -1 -9 4 0 18 -41 21 -47 4z m125 -87 c-3 -3 -9 2 -12 12 -6 14 -5
15 5 6 7 -7 10 -15 7 -18z"/>
<path d="M596 1028 c-22 -62 -39 -118 -39 -125 0 -15 -18 -8 -145 56 -56 28
-104 46 -107 41 -3 -5 13 -45 35 -90 54 -107 93 -200 75 -176 -14 18 -18 17
-122 -20 -59 -21 -110 -42 -111 -46 -2 -4 -9 -5 -14 -2 -7 4 -8 2 -4 -5 6 -9
11 -9 22 0 12 10 13 9 9 -4 -5 -12 15 -22 92 -47 54 -18 103 -35 109 -37 12
-4 47 64 39 77 -3 5 -45 8 -94 7 -50 -2 -87 0 -85 3 8 7 13 7 105 9 78 1 80 2
75 24 l-6 22 11 -22 c11 -21 19 -23 106 -23 l93 0 0 85 c0 47 -2 85 -5 85 -3
0 -22 -7 -42 -15 -20 -8 -38 -14 -40 -11 -2 2 15 11 37 20 22 9 43 22 46 29 2
7 3 72 2 145 l-3 132 -39 -112z m24 -158 c8 -5 11 -10 5 -10 -5 0 -17 5 -25
10 -8 5 -10 10 -5 10 6 0 17 -5 25 -10z m-88 -67 c-6 -3 -9 -10 -5 -16 4 -7
-1 -6 -10 2 -21 17 -21 17 6 18 12 0 16 -1 9 -4z m-298 -141 c3 -5 -1 -9 -9
-9 -8 0 -12 4 -9 9 3 4 7 8 9 8 2 0 6 -4 9 -8z"/>
<path d="M651 998 l0 -138 40 20 c21 11 39 27 39 36 0 8 -4 12 -10 9 -5 -3 -7
0 -5 7 3 8 -10 56 -29 108 l-35 95 0 -137z"/>
<path d="M168 1063 c-25 -27 -98 -140 -98 -153 0 -3 13 -11 29 -17 27 -10 30
-9 41 18 7 16 32 54 55 86 40 54 42 59 28 75 -21 24 -25 23 -55 -9z"/>
<path d="M1067 1072 c-14 -16 -13 -21 19 -62 19 -25 44 -62 55 -82 21 -40 35
-46 62 -25 16 11 15 17 -18 72 -35 59 -82 115 -95 115 -4 0 -14 -8 -23 -18z"/>
<path d="M916 975 c-25 -12 -44 -24 -41 -27 4 -3 0 -5 -7 -5 -23 3 -118 -45
-111 -56 3 -5 1 -7 -5 -3 -14 9 -63 -14 -55 -27 3 -6 1 -7 -5 -4 -20 13 -42
-5 -42 -35 0 -21 4 -27 13 -22 9 6 9 5 0 -7 -7 -9 -12 -37 -10 -65 l2 -49 83
-3 c45 -2 82 1 82 6 0 14 -40 102 -46 102 -3 0 -27 -22 -52 -50 -25 -27 -50
-50 -56 -50 -5 0 2 13 17 28 15 16 25 31 22 35 -3 4 -2 5 2 2 4 -3 66 52 137
122 72 70 89 85 38 33 -50 -53 -92 -102 -92 -110 0 -8 11 -37 23 -65 l24 -50
76 159 c42 87 77 160 77 161 0 7 -34 -2 -74 -20z"/>
<path d="M46 840 c-8 -28 -18 -77 -22 -110 l-7 -60 30 0 c28 0 29 2 45 83 9
45 19 89 22 98 5 11 -1 19 -19 27 -14 7 -28 12 -30 12 -2 0 -11 -23 -19 -50z"/>
<path d="M1193 878 c-22 -10 -22 -11 -5 -57 10 -25 19 -66 21 -91 4 -55 6 -60
36 -60 22 0 23 3 19 53 -3 28 -7 59 -11 67 -3 8 -7 20 -7 25 -4 30 -19 75 -24
74 -4 0 -17 -5 -29 -11z m37 -48 c0 -5 -5 -10 -11 -10 -5 0 -7 5 -4 10 3 6 8
10 11 10 2 0 4 -4 4 -10z m15 -60 c3 -5 1 -10 -4 -10 -6 0 -11 5 -11 10 0 6 2
10 4 10 3 0 8 -4 11 -10z"/>
<path d="M867 715 c-9 -19 -13 -36 -9 -38 10 -6 257 -8 251 -2 -3 2 -14 6 -25
8 -10 2 -32 9 -48 16 -16 6 -36 9 -43 7 -8 -3 -12 -2 -9 2 3 5 -9 13 -27 19
-73 25 -72 25 -90 -12z m43 -5 c0 -5 -5 -10 -11 -10 -5 0 -7 5 -4 10 3 6 8 10
11 10 2 0 4 -4 4 -10z"/>
<path d="M445 650 c4 -7 -56 -143 -125 -281 -20 -41 -15 -37 81 58 l102 101
-22 58 c-12 31 -20 59 -18 61 2 2 12 -18 22 -44 10 -27 21 -51 24 -55 4 -4 34
19 66 53 l60 60 -97 -2 c-54 -1 -95 -5 -93 -9z"/>
<path d="M657 654 c-4 -4 -7 -45 -7 -91 l0 -83 53 21 c66 26 73 33 50 51 -40
31 -93 95 -79 95 8 0 14 -5 13 -11 -1 -6 4 -10 11 -8 8 1 11 -1 8 -6 -7 -13
55 -67 74 -65 11 2 11 1 2 -3 -10 -5 -8 -12 9 -30 12 -13 27 -21 33 -17 6 3 8
2 3 -2 -10 -11 23 -46 36 -38 5 3 7 2 4 -3 -3 -5 24 -39 60 -74 l65 -65 -22
45 c-13 25 -28 48 -34 52 -6 4 -7 8 -3 8 4 0 -8 33 -29 73 -20 39 -41 82 -47
94 -5 12 -13 20 -17 18 -3 -2 -6 6 -6 18 1 21 -4 22 -84 25 -47 1 -89 0 -93
-4z m107 -42 c3 -5 -1 -9 -9 -9 -8 0 -12 4 -9 9 3 4 7 8 9 8 2 0 6 -4 9 -8z
m146 -142 c0 -5 -5 -10 -11 -10 -5 0 -7 5 -4 10 3 6 8 10 11 10 2 0 4 -4 4
-10z"/>
<path d="M861 618 c12 -24 22 -44 23 -45 3 -3 229 77 235 83 2 2 -60 4 -138 4
l-141 0 21 -42z"/>
<path d="M25 593 c6 -57 33 -163 40 -163 2 0 16 5 30 12 17 8 24 17 20 27 -14
37 -35 127 -35 153 0 25 -4 28 -31 28 l-31 0 7 -57z"/>
<path d="M1209 618 c0 -18 -8 -63 -18 -100 l-17 -67 28 -10 c26 -9 28 -8 39
31 11 42 29 143 29 166 0 7 -13 12 -30 12 -27 0 -30 -3 -31 -32z"/>
<path d="M597 602 c-20 -21 -34 -42 -30 -47 5 -4 3 -6 -2 -2 -6 3 -65 -49
-130 -115 l-120 -120 85 42 c47 23 87 46 88 51 2 5 8 7 13 3 16 -10 31 6 19
21 -8 10 -8 15 1 21 7 4 9 3 5 -4 -14 -23 17 -23 62 1 l47 25 1 81 c1 44 1 81
0 81 0 0 -18 -17 -39 -38z"/>
<path d="M723 497 c-29 -12 -53 -26 -53 -30 0 -5 5 -5 10 -2 6 3 10 1 10 -5 0
-7 6 -10 14 -7 8 3 17 -1 20 -9 3 -8 9 -13 13 -12 4 1 18 -3 31 -10 12 -7 28
-10 34 -6 7 4 8 3 4 -4 -6 -11 13 -17 37 -13 5 1 6 -3 2 -9 -3 -5 -4 -10 -2
-10 3 0 31 -12 63 -26 54 -24 57 -24 40 -5 -10 11 -23 18 -29 14 -5 -3 -7 -2
-4 4 3 5 -26 41 -66 80 l-72 71 -52 -21z m27 -27 c0 -5 -2 -10 -4 -10 -3 0 -8
5 -11 10 -3 6 -1 10 4 10 6 0 11 -4 11 -10z"/>
<path d="M593 443 c-18 -9 -33 -22 -33 -29 0 -19 43 -129 52 -132 5 -2 6 -7 3
-12 -3 -4 1 -25 8 -46 12 -34 13 -26 14 99 0 75 -3 137 -6 136 -3 0 -21 -8
-38 -16z m10 -78 c4 -8 3 -16 -1 -19 -4 -3 -9 4 -9 15 -2 23 3 25 10 4z"/>
<path d="M650 424 c0 -25 4 -33 13 -28 10 6 10 4 0 -7 -7 -7 -13 -37 -13 -67
0 -40 3 -51 13 -46 10 6 10 4 0 -7 -7 -7 -13 -29 -12 -48 0 -33 3 -29 25 34
14 39 27 75 28 80 2 6 8 23 14 38 18 43 15 52 -23 70 -20 9 -38 17 -40 17 -3
0 -5 -16 -5 -36z"/>
<path d="M87 417 c-16 -11 -15 -17 18 -72 20 -33 49 -73 65 -90 30 -29 30 -29
50 -10 19 20 19 20 -16 65 -20 25 -45 62 -55 83 -21 39 -34 45 -62 24z"/>
<path d="M1154 408 c-3 -12 -13 -28 -21 -36 -8 -8 -12 -21 -9 -28 3 -7 0 -16
-6 -20 -7 -5 -8 -2 -4 7 5 8 -8 -4 -27 -25 -34 -40 -34 -40 -15 -60 l20 -21
34 40 c22 27 32 47 28 60 -4 15 -3 16 4 6 7 -10 11 -10 17 -1 4 6 4 14 1 17
-3 4 3 12 14 20 24 17 26 48 4 57 -26 10 -32 7 -40 -16z"/>
<path d="M226 231 c-17 -19 -16 -21 35 -61 64 -51 129 -85 139 -73 24 24 12
42 -68 97 -45 31 -84 56 -86 56 -2 0 -11 -9 -20 -19z"/>
<path d="M955 193 c-77 -52 -90 -71 -65 -96 11 -12 96 34 148 78 41 36 42 38
26 56 -9 11 -20 19 -23 18 -3 0 -42 -25 -86 -56z"/>
<path d="M430 110 c-14 -26 -4 -40 31 -44 14 -1 30 -5 35 -9 6 -3 21 -5 33 -2
11 2 21 0 21 -6 0 -5 17 -9 38 -9 33 0 38 3 40 25 2 28 -27 40 -78 33 -16 -2
-27 -1 -25 3 3 3 -8 9 -23 12 -15 3 -35 9 -44 12 -11 4 -20 -1 -28 -15z m55
-20 c3 -5 1 -10 -4 -10 -6 0 -11 5 -11 10 0 6 2 10 4 10 3 0 8 -4 11 -10z"/>
<path d="M800 114 c-19 -7 -53 -13 -75 -14 -48 0 -59 -7 -63 -39 -4 -24 -3
-24 55 -18 60 7 119 21 140 35 15 9 6 53 -11 51 -6 -1 -27 -7 -46 -15z"/>
</g>
</svg>
